<svg width="47" height="50" viewBox="0 0 47 50" fill="none" xmlns="http://www.w3.org/2000/svg">
<g clip-path="url(#clip0_401_3328)">
<path d="M46.2498 35.5C45.9998 34.9 45.7498 34.25 45.4998 33.7C45.0998 32.8 44.6998 31.95 44.3498 31.15L44.2998 31.1C40.8498 23.6 37.1498 16 33.2498 8.5L33.0998 8.2C32.6998 7.45 32.2998 6.65 31.8998 5.85C31.3998 4.95 30.8998 4 30.0998 3.1C28.4998 1.1 26.1998 0 23.7498 0C21.2498 0 18.9998 1.1 17.3498 3C16.5998 3.9 16.0498 4.85 15.5498 5.75C15.1498 6.55 14.7498 7.35 14.3498 8.1L14.1998 8.4C10.3498 15.9 6.59976 23.5 3.14977 31L3.09977 31.1C2.74977 31.9 2.34977 32.75 1.94977 33.65C1.69977 34.2 1.44977 34.8 1.19977 35.45C0.549771 37.3 0.349773 39.05 0.599771 40.85C1.14977 44.6 3.64977 47.75 7.09976 49.15C8.39976 49.7 9.74976 49.95 11.1498 49.95C11.5498 49.95 12.0498 49.9 12.4498 49.85C14.0998 49.65 15.7998 49.1 17.4498 48.15C19.4998 47 21.4498 45.35 23.6498 42.95C25.8498 45.35 27.8498 47 29.8498 48.15C31.4998 49.1 33.1998 49.65 34.8498 49.85C35.2498 49.9 35.7498 49.95 36.1498 49.95C37.5498 49.95 38.9498 49.7 40.1998 49.15C43.6998 47.75 46.1498 44.55 46.6998 40.85C47.0998 39.1 46.8998 37.35 46.2498 35.5ZM23.6998 38.1C20.9998 34.7 19.2498 31.5 18.6498 28.8C18.3998 27.65 18.3498 26.65 18.4998 25.75C18.5998 24.95 18.8998 24.25 19.2998 23.65C20.2498 22.3 21.8498 21.45 23.6998 21.45C25.5498 21.45 27.1998 22.25 28.0998 23.65C28.4998 24.25 28.7998 24.95 28.8998 25.75C29.0498 26.65 28.9998 27.7 28.7498 28.8C28.1498 31.45 26.3998 34.65 23.6998 38.1ZM43.6498 40.45C43.2998 43.05 41.5498 45.3 39.0998 46.3C37.8998 46.8 36.5998 46.95 35.2998 46.8C34.0498 46.65 32.7998 46.25 31.4998 45.5C29.6998 44.5 27.8998 42.95 25.7998 40.65C29.0998 36.6 31.0998 32.9 31.8498 29.6C32.1998 28.05 32.2498 26.65 32.0998 25.35C31.8998 24.1 31.4498 22.95 30.7498 21.95C29.1998 19.7 26.5998 18.4 23.6998 18.4C20.7998 18.4 18.1998 19.75 16.6498 21.95C15.9498 22.95 15.4998 24.1 15.2998 25.35C15.0998 26.65 15.1498 28.1 15.5498 29.6C16.2998 32.9 18.3498 36.65 21.5998 40.7C19.5498 43 17.6998 44.55 15.8998 45.55C14.5998 46.3 13.3498 46.7 12.0998 46.85C10.7498 47 9.44976 46.8 8.29976 46.35C5.84976 45.35 4.09977 43.1 3.74977 40.5C3.59977 39.25 3.69977 38 4.19977 36.6C4.34977 36.1 4.59977 35.6 4.84977 35C5.19976 34.2 5.59976 33.35 5.99976 32.5L6.04976 32.4C9.49976 24.95 13.1998 17.35 17.0498 9.95L17.1998 9.65C17.5998 8.9 17.9998 8.1 18.3998 7.35C18.7998 6.55 19.2498 5.8 19.7998 5.15C20.8498 3.95 22.2498 3.3 23.7998 3.3C25.3498 3.3 26.7498 3.95 27.7998 5.15C28.3498 5.8 28.7998 6.55 29.1998 7.35C29.5998 8.1 29.9998 8.9 30.3998 9.65L30.5498 9.95C34.3498 17.4 38.0498 25 41.4998 32.45V32.5C41.8998 33.3 42.2498 34.2 42.6498 35C42.8998 35.6 43.1498 36.1 43.2998 36.6C43.6998 37.9 43.8498 39.15 43.6498 40.45Z" fill="#FF5A5F"/>
</g>
<defs>
<clipPath id="clip0_401_3328">
<rect width="47" height="50" fill="white"/>
</clipPath>
</defs>
</svg>
