<svg width="50" height="50" viewBox="0 0 50 50" fill="none" xmlns="http://www.w3.org/2000/svg">
<g clip-path="url(#clip0_401_3154)">
<path d="M45.1775 30.6804C44.1124 30.6804 43.284 29.852 43.1656 28.7869C42.4556 18.6094 36.8934 4.26024 26.568 4.26024C18.0473 4.26024 11.6272 10.1774 7.48516 21.923C7.13013 22.9881 5.9467 23.5798 4.88161 23.1064C3.81652 22.7514 3.2248 21.5679 3.69818 20.6212C8.4319 7.10048 16.1538 0.236572 26.568 0.236572C40.2071 0.236572 46.4792 17.5443 47.1893 28.5502C47.3076 29.6153 46.4792 30.6804 45.2958 30.6804H45.1775Z" fill="#1D2D35"/>
<path opacity="0.4" d="M49.9114 34.5858L14.3492 49.2899L0.236816 15.1481L6.62733 12.5445L35.8877 0.562256L49.9114 34.5858Z" fill="#FFE000"/>
<path d="M48.2544 38.5207L10.5621 46.3313L3.10645 10.1775L9.37863 8.8757L40.7988 2.36682L48.2544 38.5207Z" fill="#FFE000"/>
<path d="M26.0948 38.1656C19.2309 38.1656 12.5741 35.207 7.95876 29.9999C7.36704 29.5265 7.2487 28.6981 7.48538 27.9881C8.78716 24.5561 12.2191 16.5975 16.5978 16.4792C18.8463 16.4792 20.5031 18.2543 21.8049 19.6744C22.1599 20.1478 22.7517 20.7395 23.225 21.0946C24.2901 20.0295 26.3019 16.7159 27.8404 13.2839C28.3138 12.2188 29.4972 11.8638 30.5623 12.3372C31.6274 12.8105 31.9824 13.994 31.509 15.0591C26.7753 25.3549 24.2901 25.3549 23.3434 25.3549C21.4499 25.3549 20.1481 23.9348 18.8463 22.5147C18.2546 21.923 17.0712 20.6212 16.5978 20.6212C15.5327 20.7395 13.2842 24.4082 11.7457 28.3135C15.6511 32.2189 20.9765 34.3491 26.4499 34.2307C31.1836 34.2307 39.6156 33.4023 43.0475 28.3135C42.1008 18.136 36.5386 4.37858 26.4499 4.37858C25.3848 4.37858 24.438 3.43184 24.438 2.36675C24.438 1.30166 25.3848 0.236572 26.5682 0.236572C40.2073 0.236572 46.4795 17.5443 47.1895 28.5502C47.1895 28.9052 47.0712 29.3786 46.9528 29.7337C43.7576 35.1775 36.5386 38.2544 26.5682 38.2544C26.4499 38.1656 26.2132 38.1656 26.0948 38.1656Z" fill="#1D2D35"/>
</g>
<defs>
<clipPath id="clip0_401_3154">
<rect width="50" height="49.4083" fill="white"/>
</clipPath>
</defs>
</svg>
