<svg width="50" height="50" viewBox="0 0 50 50" fill="none" xmlns="http://www.w3.org/2000/svg">
<g clip-path="url(#clip0_401_2020)">
<path d="M45.4828 0H4.53579C2.03579 0 0.00927734 2.02652 0.00927734 4.52652V45.4545C0.00927734 47.9735 2.03579 50 4.53579 50H45.4638C47.9638 50 49.9903 47.9735 49.9903 45.4735V4.52652C50.0093 2.02652 47.9828 0 45.4828 0Z" fill="#FF3366"/>
<path d="M16.7138 15.7385C18.3805 15.7385 19.763 14.4317 19.763 12.7272C19.763 11.0226 18.3615 9.71582 16.7138 9.71582C15.0471 9.71582 13.6646 11.0226 13.6646 12.7272C13.6646 14.4317 15.0661 15.7385 16.7138 15.7385Z" fill="white"/>
<path d="M10.3881 31.8561C10.2176 32.6136 10.1229 33.447 10.1229 34.1099C10.1229 36.7614 11.5623 38.5227 14.6116 38.5227C17.1494 38.5227 19.1949 37.0265 20.6722 34.5833L19.7631 38.2008H24.801L27.6797 26.6667C28.3994 23.75 29.782 22.2348 31.9032 22.2348C33.5699 22.2348 34.5926 23.2765 34.5926 24.9811C34.5926 25.4735 34.5547 26.0227 34.3654 26.5909L32.8881 31.8939C32.6608 32.6515 32.5661 33.428 32.5661 34.1477C32.5661 36.6667 34.0434 38.5038 37.1494 38.5038C39.801 38.5038 41.9032 36.7992 43.0775 32.7083L41.1078 31.9508C40.1229 34.697 39.2707 35.1894 38.5888 35.1894C37.907 35.1894 37.5472 34.7348 37.5472 33.8447C37.5472 33.447 37.6419 32.9924 37.7744 32.4432L39.2138 27.2727C39.5737 26.0606 39.7063 24.9811 39.7063 23.9962C39.7063 20.1326 37.3767 18.125 34.5358 18.125C31.8843 18.125 29.1949 20.5114 27.8502 23.0303L28.8351 18.5227H21.1457L20.0661 22.5H23.6646L21.4487 31.3636C19.7063 35.2273 16.5244 35.2841 16.1267 35.2083C15.4638 35.0568 15.0472 34.8106 15.0472 33.9583C15.0472 33.4659 15.1419 32.7652 15.3691 31.8939L18.7404 18.5227H10.1987L9.11914 22.5H12.6608L10.3881 31.8561Z" fill="white"/>
</g>
<defs>
<clipPath id="clip0_401_2020">
<rect width="50" height="50" fill="white"/>
</clipPath>
</defs>
</svg>
