<svg width="50" height="46" viewBox="0 0 50 46" fill="none" xmlns="http://www.w3.org/2000/svg">
<path d="M10.8871 1.48669L24.9496 0L39.0121 1.48669L49.8992 16.1017L24.9496 45.1552L0 16.1017L10.8871 1.48669Z" fill="#FDB300"/>
<path d="M10.1058 16.1016L24.9496 45.1551L0 16.1016H10.1058Z" fill="#EA6C00"/>
<path d="M39.7936 16.1016L24.9498 45.1551L49.8994 16.1016H39.7936Z" fill="#EA6C00"/>
<path d="M10.106 16.1016H39.7935L24.9497 45.1551L10.106 16.1016Z" fill="#FDAD00"/>
<path d="M24.9497 0L10.8872 1.48668L10.106 16.1017L24.9497 0Z" fill="#FDD231"/>
<path d="M24.9497 0L39.0122 1.48668L39.7935 16.1017L24.9497 0Z" fill="#FDD231"/>
<path d="M49.8994 16.1015L39.0122 1.48657L39.7936 16.1015H49.8994Z" fill="#FDAD00"/>
<path d="M0 16.1015L10.8871 1.48657L10.1058 16.1015H0Z" fill="#FDAD00"/>
<path d="M24.9497 0L10.106 16.1017H39.7935L24.9497 0Z" fill="#FEEEB7"/>
</svg>
