<svg width="50" height="50" viewBox="0 0 50 50" fill="none" xmlns="http://www.w3.org/2000/svg">
<g clip-path="url(#clip0_401_367)">
<path d="M25.0002 50.0004C38.8074 50.0004 50.0004 38.8074 50.0004 25.0002C50.0004 11.193 38.8074 0 25.0002 0C11.193 0 0 11.193 0 25.0002C0 38.8074 11.193 50.0004 25.0002 50.0004Z" fill="#34E0A1"/>
<path d="M40.4417 20.1228L43.4586 16.8408H36.7685C33.4193 14.5529 29.3745 13.2205 25.0004 13.2205C20.6316 13.2205 16.598 14.5559 13.2545 16.8408H6.54785L9.5644 20.1228C7.71525 21.81 6.5561 24.2404 6.5561 26.9386C6.5561 32.0308 10.6845 36.1592 15.7768 36.1592C18.1959 36.1592 20.3995 35.2262 22.0446 33.7011L25 36.919L27.9555 33.7041C29.6006 35.2292 31.8019 36.1592 34.2207 36.1592C39.3129 36.1592 43.447 32.0308 43.447 26.9386C43.4496 24.2374 42.2905 21.8074 40.4413 20.1228H40.4417ZM15.7794 33.1787C12.3323 33.1787 9.53928 30.3856 9.53928 26.9386C9.53928 23.4915 12.3327 20.6985 15.7794 20.6985C19.2264 20.6985 22.0195 23.4919 22.0195 26.9386C22.0195 30.3853 19.2261 33.1787 15.7794 33.1787ZM25.003 26.7571C25.003 22.6507 22.0169 19.1257 18.0756 17.62C20.2071 16.729 22.5449 16.2348 25.0004 16.2348C27.4556 16.2348 29.7964 16.729 31.9279 17.62C27.9896 19.1287 25.0034 22.6507 25.0034 26.7571H25.003ZM34.2237 33.1787C30.7766 33.1787 27.9836 30.3856 27.9836 26.9386C27.9836 23.4915 30.777 20.6985 34.2237 20.6985C37.6708 20.6985 40.4638 23.4919 40.4638 26.9386C40.4638 30.3853 37.6704 33.1787 34.2237 33.1787ZM34.2237 23.6648C32.4162 23.6648 30.9525 25.1284 30.9525 26.9359C30.9525 28.7431 32.4162 30.2068 34.2237 30.2068C36.0309 30.2068 37.4945 28.7431 37.4945 26.9359C37.4945 25.1314 36.0309 23.6648 34.2237 23.6648ZM19.0506 26.9386C19.0506 28.7457 17.5869 30.2094 15.7794 30.2094C13.9722 30.2094 12.5086 28.7457 12.5086 26.9386C12.5086 25.131 13.9722 23.6674 15.7794 23.6674C17.5865 23.6648 19.0506 25.131 19.0506 26.9386Z" fill="black"/>
</g>
<defs>
<clipPath id="clip0_401_367">
<rect width="50" height="50" fill="white"/>
</clipPath>
</defs>
</svg>
